<svg xmlns="http://www.w3.org/2000/svg" width="256" height="256" viewBox="-34.504 -34.504 70.794 69.008">
  <title>termite_overmind (mob id 48, 12 frames)</title>
    <g opacity="1">
      <animate attributeName="opacity" values="1;0;0;0;0;0;0;0;0;0;0;0;1" keyTimes="0;0.083;0.167;0.25;0.333;0.417;0.5;0.583;0.667;0.75;0.833;0.917;1" dur="1.2s" calcMode="discrete" repeatCount="indefinite"/>
    <g transform="matrix(1.786 0 0 1.786 7.144 0)"><path d="M 0 -3.5 Q 5.5 -4.985 11 -2.485" fill="none" stroke="#292929" stroke-width="3" stroke-linecap="round" stroke-linejoin="round"/></g>
    <g transform="matrix(1.786 0 0 1.786 7.144 0)"><path d="M 0 3.5 Q 5.5 4.985 11 2.485" fill="none" stroke="#292929" stroke-width="3" stroke-linecap="round" stroke-linejoin="round"/></g>
    <g transform="matrix(1.786 0 0 1.786 0 0)"><path d="M -14 0 a 14 14 0 1 0 28 0 a 14 14 0 1 0 -28 0 Z" fill="#A1822D"/></g>
    <g transform="matrix(1.786 0 0 1.786 0 0)"><path d="M -11 0 a 11 11 0 1 0 22 0 a 11 11 0 1 0 -22 0 Z" fill="#C7A138"/></g>
    </g>
    <g opacity="0">
      <animate attributeName="opacity" values="0;1;0;0;0;0;0;0;0;0;0;0;0" keyTimes="0;0.083;0.167;0.25;0.333;0.417;0.5;0.583;0.667;0.75;0.833;0.917;1" dur="1.2s" calcMode="discrete" repeatCount="indefinite"/>
    <g transform="matrix(1.786 0 0 1.786 7.144 0)"><path d="M 0 -3.5 Q 5.5 -4.942 11 -2.442" fill="none" stroke="#292929" stroke-width="3" stroke-linecap="round" stroke-linejoin="round"/></g>
    <g transform="matrix(1.786 0 0 1.786 7.144 0)"><path d="M 0 3.5 Q 5.5 4.942 11 2.442" fill="none" stroke="#292929" stroke-width="3" stroke-linecap="round" stroke-linejoin="round"/></g>
    <g transform="matrix(1.786 0 0 1.786 0 0)"><path d="M -14 0 a 14 14 0 1 0 28 0 a 14 14 0 1 0 -28 0 Z" fill="#A1822D"/></g>
    <g transform="matrix(1.786 0 0 1.786 0 0)"><path d="M -11 0 a 11 11 0 1 0 22 0 a 11 11 0 1 0 -22 0 Z" fill="#C7A138"/></g>
    </g>
    <g opacity="0">
      <animate attributeName="opacity" values="0;0;1;0;0;0;0;0;0;0;0;0;0" keyTimes="0;0.083;0.167;0.25;0.333;0.417;0.5;0.583;0.667;0.75;0.833;0.917;1" dur="1.2s" calcMode="discrete" repeatCount="indefinite"/>
    <g transform="matrix(1.786 0 0 1.786 7.144 0)"><path d="M 0 -3.5 Q 5.5 -4.875 11 -2.375" fill="none" stroke="#292929" stroke-width="3" stroke-linecap="round" stroke-linejoin="round"/></g>
    <g transform="matrix(1.786 0 0 1.786 7.144 0)"><path d="M 0 3.5 Q 5.5 4.875 11 2.375" fill="none" stroke="#292929" stroke-width="3" stroke-linecap="round" stroke-linejoin="round"/></g>
    <g transform="matrix(1.786 0 0 1.786 0 0)"><path d="M -14 0 a 14 14 0 1 0 28 0 a 14 14 0 1 0 -28 0 Z" fill="#A1822D"/></g>
    <g transform="matrix(1.786 0 0 1.786 0 0)"><path d="M -11 0 a 11 11 0 1 0 22 0 a 11 11 0 1 0 -22 0 Z" fill="#C7A138"/></g>
    </g>
    <g opacity="0">
      <animate attributeName="opacity" values="0;0;0;1;0;0;0;0;0;0;0;0;0" keyTimes="0;0.083;0.167;0.25;0.333;0.417;0.5;0.583;0.667;0.75;0.833;0.917;1" dur="1.2s" calcMode="discrete" repeatCount="indefinite"/>
    <g transform="matrix(1.786 0 0 1.786 7.144 0)"><path d="M 0 -3.5 Q 5.5 -4.793 11 -2.293" fill="none" stroke="#292929" stroke-width="3" stroke-linecap="round" stroke-linejoin="round"/></g>
    <g transform="matrix(1.786 0 0 1.786 7.144 0)"><path d="M 0 3.5 Q 5.5 4.793 11 2.293" fill="none" stroke="#292929" stroke-width="3" stroke-linecap="round" stroke-linejoin="round"/></g>
    <g transform="matrix(1.786 0 0 1.786 0 0)"><path d="M -14 0 a 14 14 0 1 0 28 0 a 14 14 0 1 0 -28 0 Z" fill="#A1822D"/></g>
    <g transform="matrix(1.786 0 0 1.786 0 0)"><path d="M -11 0 a 11 11 0 1 0 22 0 a 11 11 0 1 0 -22 0 Z" fill="#C7A138"/></g>
    </g>
    <g opacity="0">
      <animate attributeName="opacity" values="0;0;0;0;1;0;0;0;0;0;0;0;0" keyTimes="0;0.083;0.167;0.25;0.333;0.417;0.5;0.583;0.667;0.75;0.833;0.917;1" dur="1.2s" calcMode="discrete" repeatCount="indefinite"/>
    <g transform="matrix(1.786 0 0 1.786 7.144 0)"><path d="M 0 -3.5 Q 5.5 -4.707 11 -2.207" fill="none" stroke="#292929" stroke-width="3" stroke-linecap="round" stroke-linejoin="round"/></g>
    <g transform="matrix(1.786 0 0 1.786 7.144 0)"><path d="M 0 3.5 Q 5.5 4.707 11 2.207" fill="none" stroke="#292929" stroke-width="3" stroke-linecap="round" stroke-linejoin="round"/></g>
    <g transform="matrix(1.786 0 0 1.786 0 0)"><path d="M -14 0 a 14 14 0 1 0 28 0 a 14 14 0 1 0 -28 0 Z" fill="#A1822D"/></g>
    <g transform="matrix(1.786 0 0 1.786 0 0)"><path d="M -11 0 a 11 11 0 1 0 22 0 a 11 11 0 1 0 -22 0 Z" fill="#C7A138"/></g>
    </g>
    <g opacity="0">
      <animate attributeName="opacity" values="0;0;0;0;0;1;0;0;0;0;0;0;0" keyTimes="0;0.083;0.167;0.25;0.333;0.417;0.5;0.583;0.667;0.75;0.833;0.917;1" dur="1.2s" calcMode="discrete" repeatCount="indefinite"/>
    <g transform="matrix(1.786 0 0 1.786 7.144 0)"><path d="M 0 -3.5 Q 5.5 -4.625 11 -2.125" fill="none" stroke="#292929" stroke-width="3" stroke-linecap="round" stroke-linejoin="round"/></g>
    <g transform="matrix(1.786 0 0 1.786 7.144 0)"><path d="M 0 3.5 Q 5.5 4.625 11 2.125" fill="none" stroke="#292929" stroke-width="3" stroke-linecap="round" stroke-linejoin="round"/></g>
    <g transform="matrix(1.786 0 0 1.786 0 0)"><path d="M -14 0 a 14 14 0 1 0 28 0 a 14 14 0 1 0 -28 0 Z" fill="#A1822D"/></g>
    <g transform="matrix(1.786 0 0 1.786 0 0)"><path d="M -11 0 a 11 11 0 1 0 22 0 a 11 11 0 1 0 -22 0 Z" fill="#C7A138"/></g>
    </g>
    <g opacity="0">
      <animate attributeName="opacity" values="0;0;0;0;0;0;1;0;0;0;0;0;0" keyTimes="0;0.083;0.167;0.25;0.333;0.417;0.5;0.583;0.667;0.75;0.833;0.917;1" dur="1.2s" calcMode="discrete" repeatCount="indefinite"/>
    <g transform="matrix(1.786 0 0 1.786 7.144 0)"><path d="M 0 -3.5 Q 5.5 -4.558 11 -2.058" fill="none" stroke="#292929" stroke-width="3" stroke-linecap="round" stroke-linejoin="round"/></g>
    <g transform="matrix(1.786 0 0 1.786 7.144 0)"><path d="M 0 3.5 Q 5.5 4.558 11 2.058" fill="none" stroke="#292929" stroke-width="3" stroke-linecap="round" stroke-linejoin="round"/></g>
    <g transform="matrix(1.786 0 0 1.786 0 0)"><path d="M -14 0 a 14 14 0 1 0 28 0 a 14 14 0 1 0 -28 0 Z" fill="#A1822D"/></g>
    <g transform="matrix(1.786 0 0 1.786 0 0)"><path d="M -11 0 a 11 11 0 1 0 22 0 a 11 11 0 1 0 -22 0 Z" fill="#C7A138"/></g>
    </g>
    <g opacity="0">
      <animate attributeName="opacity" values="0;0;0;0;0;0;0;1;0;0;0;0;0" keyTimes="0;0.083;0.167;0.25;0.333;0.417;0.5;0.583;0.667;0.75;0.833;0.917;1" dur="1.2s" calcMode="discrete" repeatCount="indefinite"/>
    <g transform="matrix(1.786 0 0 1.786 7.144 0)"><path d="M 0 -3.5 Q 5.5 -4.515 11 -2.015" fill="none" stroke="#292929" stroke-width="3" stroke-linecap="round" stroke-linejoin="round"/></g>
    <g transform="matrix(1.786 0 0 1.786 7.144 0)"><path d="M 0 3.5 Q 5.5 4.515 11 2.015" fill="none" stroke="#292929" stroke-width="3" stroke-linecap="round" stroke-linejoin="round"/></g>
    <g transform="matrix(1.786 0 0 1.786 0 0)"><path d="M -14 0 a 14 14 0 1 0 28 0 a 14 14 0 1 0 -28 0 Z" fill="#A1822D"/></g>
    <g transform="matrix(1.786 0 0 1.786 0 0)"><path d="M -11 0 a 11 11 0 1 0 22 0 a 11 11 0 1 0 -22 0 Z" fill="#C7A138"/></g>
    </g>
    <g opacity="0">
      <animate attributeName="opacity" values="0;0;0;0;0;0;0;0;1;0;0;0;0" keyTimes="0;0.083;0.167;0.25;0.333;0.417;0.5;0.583;0.667;0.75;0.833;0.917;1" dur="1.2s" calcMode="discrete" repeatCount="indefinite"/>
    <g transform="matrix(1.786 0 0 1.786 7.144 0)"><path d="M 0 -3.5 Q 5.5 -4.5 11 -2" fill="none" stroke="#292929" stroke-width="3" stroke-linecap="round" stroke-linejoin="round"/></g>
    <g transform="matrix(1.786 0 0 1.786 7.144 0)"><path d="M 0 3.5 Q 5.5 4.5 11 2" fill="none" stroke="#292929" stroke-width="3" stroke-linecap="round" stroke-linejoin="round"/></g>
    <g transform="matrix(1.786 0 0 1.786 0 0)"><path d="M -14 0 a 14 14 0 1 0 28 0 a 14 14 0 1 0 -28 0 Z" fill="#A1822D"/></g>
    <g transform="matrix(1.786 0 0 1.786 0 0)"><path d="M -11 0 a 11 11 0 1 0 22 0 a 11 11 0 1 0 -22 0 Z" fill="#C7A138"/></g>
    </g>
    <g opacity="0">
      <animate attributeName="opacity" values="0;0;0;0;0;0;0;0;0;1;0;0;0" keyTimes="0;0.083;0.167;0.25;0.333;0.417;0.5;0.583;0.667;0.75;0.833;0.917;1" dur="1.2s" calcMode="discrete" repeatCount="indefinite"/>
    <g transform="matrix(1.786 0 0 1.786 7.144 0)"><path d="M 0 -3.5 Q 5.5 -4.515 11 -2.015" fill="none" stroke="#292929" stroke-width="3" stroke-linecap="round" stroke-linejoin="round"/></g>
    <g transform="matrix(1.786 0 0 1.786 7.144 0)"><path d="M 0 3.5 Q 5.5 4.515 11 2.015" fill="none" stroke="#292929" stroke-width="3" stroke-linecap="round" stroke-linejoin="round"/></g>
    <g transform="matrix(1.786 0 0 1.786 0 0)"><path d="M -14 0 a 14 14 0 1 0 28 0 a 14 14 0 1 0 -28 0 Z" fill="#A1822D"/></g>
    <g transform="matrix(1.786 0 0 1.786 0 0)"><path d="M -11 0 a 11 11 0 1 0 22 0 a 11 11 0 1 0 -22 0 Z" fill="#C7A138"/></g>
    </g>
    <g opacity="0">
      <animate attributeName="opacity" values="0;0;0;0;0;0;0;0;0;0;1;0;0" keyTimes="0;0.083;0.167;0.25;0.333;0.417;0.5;0.583;0.667;0.75;0.833;0.917;1" dur="1.2s" calcMode="discrete" repeatCount="indefinite"/>
    <g transform="matrix(1.786 0 0 1.786 7.144 0)"><path d="M 0 -3.5 Q 5.5 -4.558 11 -2.058" fill="none" stroke="#292929" stroke-width="3" stroke-linecap="round" stroke-linejoin="round"/></g>
    <g transform="matrix(1.786 0 0 1.786 7.144 0)"><path d="M 0 3.5 Q 5.5 4.558 11 2.058" fill="none" stroke="#292929" stroke-width="3" stroke-linecap="round" stroke-linejoin="round"/></g>
    <g transform="matrix(1.786 0 0 1.786 0 0)"><path d="M -14 0 a 14 14 0 1 0 28 0 a 14 14 0 1 0 -28 0 Z" fill="#A1822D"/></g>
    <g transform="matrix(1.786 0 0 1.786 0 0)"><path d="M -11 0 a 11 11 0 1 0 22 0 a 11 11 0 1 0 -22 0 Z" fill="#C7A138"/></g>
    </g>
    <g opacity="0">
      <animate attributeName="opacity" values="0;0;0;0;0;0;0;0;0;0;0;1;0" keyTimes="0;0.083;0.167;0.25;0.333;0.417;0.5;0.583;0.667;0.75;0.833;0.917;1" dur="1.2s" calcMode="discrete" repeatCount="indefinite"/>
    <g transform="matrix(1.786 0 0 1.786 7.144 0)"><path d="M 0 -3.5 Q 5.5 -4.625 11 -2.125" fill="none" stroke="#292929" stroke-width="3" stroke-linecap="round" stroke-linejoin="round"/></g>
    <g transform="matrix(1.786 0 0 1.786 7.144 0)"><path d="M 0 3.5 Q 5.5 4.625 11 2.125" fill="none" stroke="#292929" stroke-width="3" stroke-linecap="round" stroke-linejoin="round"/></g>
    <g transform="matrix(1.786 0 0 1.786 0 0)"><path d="M -14 0 a 14 14 0 1 0 28 0 a 14 14 0 1 0 -28 0 Z" fill="#A1822D"/></g>
    <g transform="matrix(1.786 0 0 1.786 0 0)"><path d="M -11 0 a 11 11 0 1 0 22 0 a 11 11 0 1 0 -22 0 Z" fill="#C7A138"/></g>
    </g>
</svg>
