<svg xmlns="http://www.w3.org/2000/svg" width="256" height="256" viewBox="-21.998 -22.002 47.245 44.003">
  <title>orange (mob id 50)</title>
  <g>
    <g transform="matrix(1 0 -0 1 0 0)"><path d="M -12 0 a 12 12 0 1 0 24 0 a 12 12 0 1 0 -24 0 Z" fill="#F0BD48"/></g>
    <g transform="matrix(1 0 -0 1 0 0)"><path d="M -12 0 a 12 12 0 1 0 24 0 a 12 12 0 1 0 -24 0 Z" fill="none" stroke="#C2993A" stroke-width="4" stroke-linecap="round" stroke-linejoin="round"/></g>
    <g transform="matrix(-0.296 0.955 -0.955 -0.296 6.001 -5.999)"><path d="M0 0C-3-7.5 4.5-9 7.5-12 7.5-7.5 6 1.5 0 0Z" fill="#39B54A"/></g>
    <g transform="matrix(-0.296 0.955 -0.955 -0.296 6.001 -5.999)"><path d="M0 0C-3-7.5 4.5-9 7.5-12 7.5-7.5 6 1.5 0 0Z" fill="none" stroke="#2E933C" stroke-width="3" stroke-linecap="round" stroke-linejoin="round"/></g>
  </g>
</svg>
